<?xml version="1.0" encoding="utf-8"?>
<!-- Generator: Adobe Illustrator 22.1.0, SVG Export Plug-In . SVG Version: 6.00 Build 0)  -->
<svg version="1.1" id="Layer_1" xmlns="http://www.w3.org/2000/svg" xmlns:xlink="http://www.w3.org/1999/xlink" x="0px" y="0px"
	 viewBox="0 0 512 512" style="enable-background:new 0 0 512 512;" xml:space="preserve">
<g>
	<title>eleventy</title>
	<g>
		<path d="M126.6,256V31h322.6v450H126.6L126.6,256z M373.5,369.8c2.5-0.2,4.8-0.9,7-2c8-4,12.7-12.6,16.4-30.5
			c1.5-7,22.4-115.7,22.7-117.4c0.4-3.4-0.2-7.2-1.6-8.9c-0.4-0.4-1-0.9-1.6-1.2l-1.1-0.6h-5.5c-4.8,0-5.6,0-6.5,0.4
			c-2.1,0.7-3.9,2.9-4.8,5.9c-0.2,0.7-3.1,16.6-6.5,35.1l-6.1,33.8l-0.9-4c-10.5-47.8-14.4-64.7-14.9-66.2c-0.4-1.2-1.1-2.2-2-3
			c-2-2.1-2.2-2.1-10.6-2.1c-7.7,0-7.9,0-9.4,1.4c-1.6,1.5-2.3,4-2,7.8c0.1,2.2,0.8,5.1,12.9,52.2c12.4,48.5,14.1,55.2,14.7,59.6
			c0.9,5.6-0.9,13.4-3.9,16.8c-0.6,0.7-0.7,0.7-1.5,0.6c-0.6,0-2.3-0.5-3.9-1c-5-1.5-6.7-1.4-8.6,0.5c-1.7,1.8-2.5,4.7-2.5,9.6
			c0,4.8,0.5,6.4,3,8.9c2.4,2.5,6,3.9,11.1,4.3C370.4,370.1,371.4,370.1,373.5,369.8L373.5,369.8z M338,337.8c1.5-0.7,2.6-2.1,3-3.6
			c0.4-1.1,0.4-1.8,0.4-6.7c0-4.8-0.1-5.6-0.4-6.7c-0.7-2.3-2.5-3.7-5.2-4.1c-0.7-0.2-3.7-0.2-6.7-0.2c-6.8,0-7.1-0.2-8.4-3.4
			c-1.2-3.4-1.8-6.1-2.1-11.3c-0.2-12.2-0.3-24.2-0.2-36.4v-33.1h6.6c8.5,0,9.5-0.2,11.3-2.1c1-1.2,1.7-2.9,1.9-4.5
			c0.2-3.4,0.2-6.7,0-10c-0.5-3-1.9-5.1-4-6c-1.1-0.5-1.2-0.5-8.4-0.6h-7.4l-0.1-22.9c0-20.4-0.1-23-0.4-24c-0.5-2-1.9-3.7-3.7-4.6
			c-1-0.4-1.4-0.4-6-0.5c-5,0-6.7,0-8,0.7c-1.6,0.7-2.8,2.5-3.4,5.2c-0.3,1-0.7,6.5-1.5,23.7l-1.1,22.3c0,0-1.5,0-3.4,0.2
			c-3.9,0.2-5,0.4-6.2,1.6c-1.7,1.8-2.3,3.6-2.4,8.5c-0.2,6.3,0.4,9.2,2.2,11.1c1.4,1.5,2.5,1.9,6.4,2l3.2,0.2v33.5
			c0,31.9,0.2,37.9,0.7,42.6c0.8,7,2.4,13.3,4.6,17.4c3.6,7.2,10.2,11.6,18.5,12.5h18.8l1.3-0.7L338,337.8z M198.4,337.8
			c1.8-1,2.9-2.9,3.7-6.2c0.3-1.5,0.3-7.6,0.3-84.8c0-78.5,0-83.2-0.4-84.5c-1-3.7-3.5-5.5-7.1-4.9c-0.7,0.2-6.4,1.6-12.8,3.3
			c-6.5,1.7-12.8,3.4-14.2,3.8c-3.2,0.8-4,1.1-5.3,2.3c-2,1.8-2.3,3.4-2.3,11.3c0,7.8,0.3,9.4,2.2,11.3c1.7,1.8,3.6,1.8,8.6,0.5
			c1.9-0.4,3.6-0.9,3.7-0.9c0.2,0,0.3,14.7,0.4,70.5c0,64.4,0.1,70.7,0.4,72c0.9,3.8,2.1,5.6,4.4,6.4c0.7,0.3,2.5,0.4,9.2,0.3
			C197.2,338.3,197.4,338.3,198.4,337.8L198.4,337.8z M258.3,337.8c1.8-0.9,2.9-2.6,3.7-5.4l0.4-1.6l0.1-83.1
			c0-59.9,0-83.6-0.2-84.6c-0.6-3.7-2.7-5.7-6-5.7c-1.3,0-3.8,0.5-16.1,3.8c-10.5,2.7-14.9,4-15.9,4.5c-1.5,0.7-2.6,1.9-3.1,3.4
			c-0.5,1.1-0.5,1.3-0.5,9c0,7.8,0,7.8,0.5,9c0.4,0.9,0.9,1.6,1.5,2.3c1.9,1.9,3.2,2,8.6,0.7c1.3-0.4,2.6-0.7,3.9-1
			c0.2,0,0.2,22.6,0.3,71l0.1,71.1l0.4,1.6c0.4,1.6,1.3,3.2,2.5,4.3c1.5,1.1,1.6,1.2,10.7,1.1C257,338.2,257.6,338.2,258.3,337.8
			L258.3,337.8z"/>
	</g>
</g>
</svg>
